<svg width="60" height="60" viewBox="0 0 60 60" fill="none" xmlns="http://www.w3.org/2000/svg">
<g clip-path="url(#clip0_30_544)">
<path d="M55.7787 11.2793C54.4885 5.98009 50.258 1.6629 44.9963 0.296493C41.224 -0.683194 37.6135 0.894149 34.5502 3.14766C34.1693 3.42774 33.7346 3.58477 33.3197 3.78985L36.6385 5.92384C37.508 6.48282 37.7611 7.64298 37.201 8.51485C36.6783 9.32931 35.5287 9.67032 34.6099 9.07735L22.8314 1.5047C20.4056 0.233212 17.7478 -0.417179 15.0021 0.296493C9.74041 1.66407 5.50994 5.98009 4.21971 11.2793C3.0326 16.1566 4.17049 20.7492 6.73924 24.2203C9.47674 27.9199 10.5689 32.2664 10.992 36.8004C11.5076 42.327 12.2025 47.8348 13.4459 53.2441L14.3599 57.2227C14.7338 58.8481 16.1752 60 17.8369 60C19.474 60 20.9013 58.8809 21.2986 57.2859L25.3381 41.0649C25.8724 38.918 27.7943 37.4133 29.9974 37.4133C32.2006 37.4133 34.1224 38.9192 34.6568 41.0649L38.6963 57.2859C39.0935 58.8809 40.5209 60 42.158 60C43.8197 60 45.2611 58.8481 45.6349 57.2227L46.549 53.2441C47.7924 47.8359 48.4861 42.327 49.0029 36.8004C49.426 32.2652 50.5181 27.9199 53.2556 24.2203C55.8279 20.7504 56.9658 16.1578 55.7787 11.2793Z" fill="#5E6D55"/>
</g>
<defs>
<clipPath id="clip0_30_544">
<rect width="60" height="60" fill="white"/>
</clipPath>
</defs>
</svg>
