<svg width="40" height="40" viewBox="0 0 40 40" fill="none" xmlns="http://www.w3.org/2000/svg">
<path d="M15.3304 7.43041C14.2573 7.03817 13.2408 6.66666 11.667 6.66666C8.33366 6.66666 6.66699 9.99999 6.66699 14.1667C6.66699 16.8308 7.34841 18.473 8.05768 20.1822C8.45766 21.1462 8.86651 22.1313 9.16699 23.3333C9.41533 24.3267 9.51566 25.764 9.62234 27.2925C9.87368 30.8933 10.1603 35 12.5003 35C13.9986 35 14.6551 32.6428 15.3779 30.0477C16.2631 26.869 17.2478 23.3333 20.0003 23.3333C22.7528 23.3333 23.7375 26.869 24.6228 30.0477C25.3455 32.6428 26.002 35 27.5003 35C29.8403 35 30.127 30.8933 30.3783 27.2925C30.485 25.764 30.5853 24.3267 30.8337 23.3333C31.1342 22.1313 31.543 21.1462 31.943 20.1822C32.6523 18.473 33.3337 16.8308 33.3337 14.1667C33.3337 9.99999 31.667 6.66666 28.3337 6.66666C26.7598 6.66666 25.7433 7.03817 24.6702 7.43041C23.4703 7.86892 22.1998 8.33332 20.0003 8.33332C17.8008 8.33332 16.5303 7.86892 15.3304 7.43041Z" stroke="#3D4C33" stroke-width="3.75" stroke-linecap="round" stroke-linejoin="round"/>
</svg>
