<svg width="32" height="32" viewBox="0 0 32 32" fill="none" xmlns="http://www.w3.org/2000/svg">
<path d="M8.74316 20.9453C13.2172 21.6841 17.7818 21.684 22.2559 20.9453C22.4481 20.8889 22.6237 20.7857 22.7656 20.6436C22.9102 20.4987 23.0147 20.3192 23.0703 20.1221C23.6426 17.4042 23.6425 14.5968 23.0703 11.8789C23.0148 11.6815 22.9104 11.5015 22.7656 11.3564C22.6238 11.2144 22.448 11.1121 22.2559 11.0557C17.7817 10.3168 13.2173 10.3167 8.74316 11.0557C8.55134 11.1121 8.37602 11.2146 8.23438 11.3564C8.08953 11.5015 7.98423 11.6814 7.92871 11.8789C7.35658 14.5967 7.35646 17.4043 7.92871 20.1221C7.98428 20.3193 8.08976 20.4987 8.23438 20.6436C8.37608 20.7854 8.55125 20.8889 8.74316 20.9453ZM14.0615 18.9756C13.9071 19.0684 13.7144 19.0712 13.5576 18.9824C13.4009 18.8937 13.3037 18.727 13.3037 18.5469V13.4531C13.3037 13.273 13.4009 13.1063 13.5576 13.0176C13.7144 12.9288 13.9071 12.9316 14.0615 13.0244L18.3018 15.5713C18.4521 15.6617 18.5439 15.8246 18.5439 16C18.5439 16.1754 18.4521 16.3383 18.3018 16.4287L14.0615 18.9756Z" fill="#5E6D55" stroke="#5E6D55" stroke-linecap="round" stroke-linejoin="round"/>
</svg>
