<svg width="40" height="40" viewBox="0 0 40 40" fill="none" xmlns="http://www.w3.org/2000/svg">
<path d="M16.3017 6.4838C17.2415 5.68292 17.7113 5.28249 18.2027 5.04767C19.339 4.50454 20.66 4.50454 21.7963 5.04767C22.2877 5.28249 22.7575 5.68292 23.6973 6.4838C24.0713 6.80255 24.2583 6.96194 24.4582 7.0958C24.916 7.40269 25.4302 7.61567 25.9708 7.72242C26.2068 7.769 26.4517 7.78855 26.9417 7.82764C28.1725 7.92585 28.7878 7.97497 29.3013 8.15632C30.4888 8.57579 31.423 9.50987 31.8425 10.6974C32.0238 11.2109 32.0728 11.8263 32.1712 13.0571C32.2102 13.547 32.2297 13.7919 32.2763 14.0278C32.383 14.5686 32.596 15.0828 32.903 15.5406C33.0368 15.7404 33.1962 15.9274 33.515 16.3014C34.3158 17.2412 34.7163 17.7112 34.9512 18.2024C35.4942 19.3387 35.4942 20.6597 34.9512 21.796C34.7163 22.2874 34.3158 22.7572 33.515 23.697C33.1962 24.071 33.0368 24.258 32.903 24.4579C32.596 24.9157 32.383 25.4299 32.2763 25.9707C32.2297 26.2065 32.2102 26.4515 32.1712 26.9414C32.0728 28.1722 32.0238 28.7875 31.8425 29.301C31.423 30.4885 30.4888 31.4227 29.3013 31.8422C28.7878 32.0235 28.1725 32.0725 26.9417 32.1709C26.4517 32.2099 26.2068 32.2295 25.9708 32.276C25.4302 32.3829 24.916 32.5957 24.4582 32.9027C24.2583 33.0365 24.0713 33.1959 23.6973 33.5147C22.7575 34.3155 22.2877 34.716 21.7963 34.9509C20.66 35.4939 19.339 35.4939 18.2027 34.9509C17.7113 34.716 17.2415 34.3155 16.3017 33.5147C15.9277 33.1959 15.7407 33.0365 15.5409 32.9027C15.0831 32.5957 14.5689 32.3829 14.0281 32.276C13.7922 32.2295 13.5473 32.2099 13.0574 32.1709C11.8266 32.0725 11.2112 32.0235 10.6977 31.8422C9.51018 31.4227 8.57608 30.4885 8.15663 29.301C7.97528 28.7875 7.92616 28.1722 7.82795 26.9414C7.78885 26.4515 7.76931 26.2065 7.72273 25.9707C7.61598 25.4299 7.403 24.9157 7.09611 24.4579C6.96225 24.258 6.80286 24.071 6.48411 23.697C5.68323 22.7572 5.2828 22.2874 5.04796 21.796C4.50485 20.6597 4.50485 19.3387 5.04796 18.2024C5.2828 17.711 5.68323 17.2412 6.48411 16.3014C6.80286 15.9274 6.96225 15.7404 7.09611 15.5406C7.403 15.0828 7.61598 14.5686 7.72273 14.0278C7.76931 13.7919 7.78885 13.547 7.82795 13.0571C7.92616 11.8263 7.97528 11.2109 8.15663 10.6974C8.57608 9.50987 9.51018 8.57579 10.6977 8.15632C11.2112 7.97497 11.8266 7.92585 13.0574 7.82764C13.5473 7.78855 13.7922 7.769 14.0281 7.72242C14.5689 7.61567 15.0831 7.40269 15.5409 7.0958C15.7407 6.96194 15.9277 6.80255 16.3017 6.4838Z" stroke="#3D4C33" stroke-width="3.75"/>
<path d="M14.167 20.8333L17.5003 24.1666L25.8337 15.8333" stroke="#3D4C33" stroke-width="3.75" stroke-linecap="round" stroke-linejoin="round"/>
</svg>
