<svg width="40" height="40" viewBox="0 0 40 40" fill="none" xmlns="http://www.w3.org/2000/svg">
<path d="M32.45 11.9938L29.475 9.01875C28.8166 8.36614 27.927 7.99999 27 8H12.825C11.9 8 11.0063 8.36875 10.35 9.01875L7.375 11.9938H0V27.975H4C5.1 27.975 5.9875 27.0875 5.99375 25.9937H6.5625L11.85 30.7687C13.7812 32.3375 16.4625 32.375 18.45 31.0063C19.2313 31.6812 20.075 32 21.0187 32C22.1562 32 23.225 31.5375 24.0688 30.5C25.45 31.0438 27.0813 30.6625 28.0688 29.45L29.7062 27.4312C30.0562 27 30.275 26.5063 30.3875 25.9937H34.0062C34.0125 27.0875 34.9062 27.975 36 27.975H40V11.9938H32.45ZM3 25.975C2.45 25.975 2 25.525 2 24.975C2 24.425 2.45 23.975 3 23.975C3.55 23.975 4 24.425 4 24.975C4 25.5312 3.55 25.975 3 25.975ZM27.375 25.5438L25.7437 27.5562C25.5688 27.7687 25.2563 27.8062 25.0375 27.6313L23.5438 26.4188L21.6688 28.7C21.2938 29.1562 20.7313 29 20.5438 28.85L18.2437 26.8813L17.2687 28.0812C16.4 29.15 14.8188 29.3125 13.8125 28.4937L7.73125 22.9937H6V14.9875H8.61875L12.475 11.1375C12.6 11.0875 12.7063 11.0438 12.8313 10.9938H16.375L13.9563 13.2125C12.1188 14.8937 12.0125 17.7312 13.6812 19.5437C14.6062 20.5562 17.5063 22.1188 20.025 19.8188L20.5375 19.35L27.3 24.8375C27.5125 25.0125 27.5438 25.3313 27.375 25.5438ZM34 22.9937H29.675C29.5312 22.8187 29.3687 22.6563 29.1938 22.5125L22.775 17.3L23.5562 16.5875C23.9625 16.2125 23.9937 15.5813 23.6187 15.175L22.9375 14.4438C22.5625 14.0375 21.9312 14.0125 21.525 14.3813L18.075 17.5437C17.4813 18.0875 16.4688 18.1312 15.9125 17.5437C15.3313 16.925 15.3813 15.975 15.9875 15.425L20.0875 11.6687C20.55 11.2437 21.15 11.0125 21.775 11.0125L27.0063 11C27.1375 11 27.2625 11.05 27.35 11.1438L31.2062 14.9937H34V22.9937ZM37 25.975C36.45 25.975 36 25.525 36 24.975C36 24.425 36.45 23.975 37 23.975C37.55 23.975 38 24.425 38 24.975C38 25.5312 37.55 25.975 37 25.975Z" fill="#3D4C33"/>
</svg>
