<svg width="40" height="40" viewBox="0 0 40 40" fill="none" xmlns="http://www.w3.org/2000/svg">
<circle cx="20" cy="20" r="19.5" stroke="#2E3645" stroke-opacity="0.05"/>
<path d="M27.3415 22.3771L23.6823 20.8089C23.4913 20.7266 23.2827 20.6935 23.0756 20.7125C22.8684 20.7316 22.6694 20.8021 22.4965 20.9178L20.54 22.222C19.3443 21.6404 18.3765 20.6769 17.7896 19.4837L17.7898 19.4836L19.0894 17.4978C19.2025 17.3254 19.2711 17.1276 19.2891 16.9222C19.3071 16.7168 19.2739 16.5102 19.1925 16.3207L17.6228 12.6584C17.516 12.4098 17.3315 12.2025 17.097 12.0675C16.8624 11.9326 16.5905 11.8772 16.3219 11.9097C15.2663 12.0454 14.2962 12.5608 13.5929 13.3595C12.8896 14.1583 12.5011 15.1857 12.5 16.25C12.5 22.4533 17.5467 27.5 23.75 27.5C24.8143 27.4989 25.8418 27.1104 26.6405 26.4071C27.4392 25.7037 27.9546 24.7336 28.0903 23.6781C28.1227 23.4094 28.0673 23.1375 27.9323 22.903C27.7974 22.6685 27.5901 22.484 27.3415 22.3771Z" fill="#5E6D55"/>
</svg>
