<svg width="94" height="94" viewBox="0 0 94 94" fill="none" xmlns="http://www.w3.org/2000/svg">
<path d="M0.754338 46.107C1.17095 20.6428 22.1515 0.337744 47.6157 0.754353C73.0799 1.17096 93.385 22.1515 92.9684 47.6157C92.5518 73.0799 71.5712 93.385 46.107 92.9684C20.6428 92.5518 0.337729 71.5712 0.754338 46.107Z" fill="#FBFBFB"/>
<path d="M5.24187 42.2629L5.91247 38.466C6.06517 37.6014 6.38139 36.9706 6.83778 36.5693C7.29416 36.168 7.84947 36.0252 8.48035 36.1366C8.87756 36.2067 9.2191 36.3875 9.49739 36.6535C9.77362 36.9312 9.94401 37.2625 10.0223 37.6377C10.2237 37.1794 10.5255 36.8351 10.9255 36.6166C11.3255 36.3981 11.7942 36.3364 12.3199 36.4292C13.0559 36.5592 13.6084 36.9098 13.9657 37.4789C14.3347 38.05 14.4452 38.7201 14.3091 39.4912L13.56 43.732L5.24187 42.2629ZM6.67357 41.046L8.9634 41.4504L9.31418 39.4643C9.41322 38.9036 9.40366 38.4802 9.27588 38.1806C9.14603 37.8926 8.87872 37.7008 8.45814 37.6265C7.99083 37.544 7.66231 37.6305 7.46091 37.8841C7.2712 38.1397 7.12133 38.5108 7.0326 39.0132L6.67357 41.046ZM10.0149 41.6361L12.6201 42.0963L13.006 39.9116C13.105 39.3508 13.0879 38.902 12.9588 38.5419C12.8275 38.1934 12.5176 37.97 12.027 37.8834C11.7582 37.8359 11.526 37.8551 11.3225 37.9156C11.1191 37.976 10.9658 38.0935 10.8393 38.2639C10.7245 38.4364 10.6331 38.613 10.5651 38.7938C10.5066 38.9882 10.442 39.2178 10.3966 39.4748L10.0149 41.6361Z" fill="#5E6D55"/>
<path d="M15.4845 35.4284L14.8857 37.0283L9.15248 34.8824L9.62658 33.6158L13.8043 35.1795L13.8167 35.1461L10.4417 31.4381L11.0406 29.8381L16.7737 31.984L16.2996 33.2507L12.122 31.687L12.1095 31.7203L15.4845 35.4284Z" fill="#5E6D55"/>
<path d="M21.8278 27.2062L21.1836 28.3138L19.5018 27.3355L17.3126 31.0991L18.9944 32.0773L18.3502 33.1849L15.7454 31.6697L16.1332 31.0032C15.3975 30.0263 14.2614 29.0772 12.7232 28.1825L12.1284 27.8365L14.4429 23.8576L18.8115 26.3987L19.2231 25.6911L21.8278 27.2062ZM18.1434 27.5473L14.6772 25.5311L13.6811 27.2436L14.04 27.4524C14.5937 27.7745 15.1425 28.1761 15.6819 28.6408C16.2154 29.1158 16.595 29.5013 16.8311 29.8033L18.1434 27.5473Z" fill="#5E6D55"/>
<path d="M21.9686 21.3169C22.3815 21.8598 22.5711 22.4487 22.5361 23.067C22.5101 23.6929 22.2608 24.2722 21.8215 24.8018C21.2307 25.514 20.5328 25.8908 19.7278 25.9321C18.9228 25.9734 18.1627 25.6819 17.4413 25.0835C16.7109 24.4775 16.2733 23.76 16.1454 22.9294C16.0266 22.1064 16.2345 21.3541 16.7875 20.6875C17.3555 20.0027 18.0474 19.6518 18.8555 19.6439C19.6636 19.636 20.4694 19.9653 21.282 20.6395L21.3916 20.7304L18.5057 24.2092C18.9881 24.594 19.4609 24.7858 19.906 24.7696C20.3434 24.7626 20.7364 24.549 21.0696 24.1473C21.3044 23.8642 21.4299 23.5829 21.4444 23.2867C21.4589 22.9905 21.3534 22.6717 21.143 22.3122L21.9686 21.3169ZM19.8342 21.1956C19.4112 20.9064 19.0023 20.7676 18.5923 20.7974C18.1822 20.8272 17.8363 21.0026 17.556 21.3405C17.2682 21.6874 17.1505 22.0523 17.1954 22.4441C17.2404 22.8359 17.4539 23.2288 17.8269 23.6153L19.8342 21.1956Z" fill="#5E6D55"/>
<path d="M21.7248 15.7531C22.4261 15.1493 23.186 14.8864 23.9878 14.9631C24.7884 15.0566 25.5151 15.4642 26.1575 16.2104C26.8077 16.9656 27.1106 17.7537 27.0763 18.5503C27.0498 19.3559 26.6691 20.0594 25.9589 20.6709C25.2307 21.2979 24.4695 21.5775 23.6599 21.4918C22.8491 21.4228 22.1237 20.9984 21.4735 20.2432C20.831 19.497 20.5269 18.7256 20.5714 17.9045C20.6237 17.0925 21.0056 16.3723 21.7248 15.7531ZM22.4035 16.5777C21.9899 16.9338 21.8068 17.3575 21.8208 17.8465C21.8425 18.3444 22.0739 18.8496 22.5074 19.3531C22.9563 19.8745 23.4293 20.1875 23.9107 20.2739C24.3999 20.3693 24.8474 20.2345 25.261 19.8785C25.6566 19.5379 25.8474 19.1231 25.8257 18.6252C25.804 18.1272 25.5648 17.613 25.1159 17.0916C24.6824 16.5881 24.2172 16.2842 23.7358 16.1977C23.2543 16.1113 22.808 16.2294 22.4035 16.5777Z" fill="#5E6D55"/>
<path d="M30.5822 10.0737C31.4147 9.66985 32.2167 9.61049 32.972 9.89016C33.722 10.1857 34.3199 10.7659 34.7496 11.6518C35.1846 12.5485 35.2753 13.3879 35.038 14.1491C34.8059 14.921 34.2577 15.5034 33.4145 15.9124C32.5499 16.3318 31.7425 16.407 30.9819 16.1167C30.2158 15.8422 29.6234 15.2461 29.1885 14.3495C28.7587 13.4636 28.6625 12.64 28.9159 11.8578C29.1745 11.0862 29.7282 10.488 30.5822 10.0737ZM31.0268 11.0447C30.5358 11.2829 30.2503 11.6456 30.1384 12.1218C30.0318 12.6087 30.126 13.1563 30.416 13.7541C30.7163 14.3732 31.0932 14.7969 31.5365 15.0038C31.9848 15.2214 32.452 15.2058 32.943 14.9676C33.4126 14.7398 33.7034 14.3878 33.81 13.9009C33.9167 13.414 33.8173 12.8557 33.5169 12.2366C33.227 11.6389 32.8552 11.2259 32.412 11.0189C31.9688 10.812 31.5072 10.8117 31.0268 11.0447Z" fill="#5E6D55"/>
<path d="M44.6458 12.4586L43.0417 12.7861L40.6104 10.4856L39.9885 11.4723L40.3683 13.3321L39.0432 13.6027L37.8183 7.60483L39.1434 7.33422L39.687 9.99606L41.5379 6.84524L43.1536 6.5153L41.3086 9.39853L44.6458 12.4586Z" fill="#5E6D55"/>
<path d="M49.4288 12.4074L48.0777 12.4681L47.8508 7.41932L45.9783 7.50347L46.0157 10.1857C46.0282 10.9927 45.8781 11.6169 45.5778 12.0698C45.2775 12.5227 44.8486 12.7557 44.3034 12.7802C43.9597 12.7957 43.6855 12.7724 43.4679 12.6872L43.4205 11.6324C43.4938 11.6766 43.6602 11.681 43.9091 11.6698C44.4425 11.6458 44.7045 11.1353 44.6943 10.1144L44.6385 6.49486L49.154 6.29196L49.4288 12.4074Z" fill="#5E6D55"/>
<path d="M51.5871 12.7085L49.8921 12.496L50.6537 6.42192L51.9956 6.59018L51.4406 11.0163L51.4759 11.0207L54.3028 6.87947L55.9979 7.09201L55.2363 13.1661L53.8944 12.9978L54.4493 8.57176L54.414 8.56733L51.5871 12.7085Z" fill="#5E6D55"/>
<path d="M56.8623 13.688L55.5663 13.3015L57.3154 7.43509L58.6115 7.82152L57.9267 10.1181L60.4961 10.8842L61.1809 8.58761L62.4769 8.97405L60.7278 14.8405L59.4317 14.454L60.191 11.9074L57.6216 11.1413L56.8623 13.688Z" fill="#5E6D55"/>
<path d="M62.553 15.7839L61.022 15.0258L63.7384 9.53985L64.9504 10.14L62.971 14.1375L63.0029 14.1533L67.0342 11.1718L68.5652 11.9298L65.8488 17.4158L64.6368 16.8157L66.6162 12.8182L66.5843 12.8024L62.553 15.7839Z" fill="#5E6D55"/>
<path d="M70.7873 20.9947L69.454 20.0445L69.4794 16.6974L68.3336 16.9151L67.232 18.4609L66.1306 17.6759L69.6834 12.6908L70.7848 13.4757L69.2081 15.6881L72.775 14.8941L74.1179 15.8512L70.7507 16.4671L70.7873 20.9947Z" fill="#5E6D55"/>
<path d="M75.4776 23.1356C74.902 23.5015 74.2993 23.6412 73.6861 23.5544C73.0646 23.4761 72.5082 23.1792 72.0173 22.697C71.357 22.0486 71.0401 21.3216 71.0663 20.516C71.0926 19.7104 71.4467 18.9774 72.1034 18.3087C72.7685 17.6316 73.5201 17.2556 74.3585 17.1977C75.1886 17.1483 75.9209 17.4185 76.5388 18.0253C77.1736 18.6488 77.4653 19.3676 77.4055 20.1735C77.3457 20.9794 76.95 21.7548 76.2102 22.5081L76.1104 22.6097L72.8855 19.4426C72.4617 19.891 72.2309 20.3461 72.2098 20.7909C72.1802 21.2274 72.36 21.6369 72.7325 22.0027C72.9948 22.2603 73.2646 22.4089 73.5586 22.4482C73.8526 22.4875 74.1791 22.409 74.555 22.2295L75.4776 23.1356ZM75.7772 21.0188C76.1008 20.6215 76.2734 20.2257 76.2781 19.8146C76.2828 19.4035 76.1369 19.0441 75.8237 18.7365C75.5021 18.4206 75.1484 18.2728 74.7542 18.2847C74.36 18.2967 73.9506 18.4766 73.5342 18.8159L75.7772 21.0188Z" fill="#5E6D55"/>
</svg>
