<svg width="19" height="23" viewBox="0 0 19 23" fill="none" xmlns="http://www.w3.org/2000/svg">
<path d="M18.3314 10.315L1.4327 0.137751C1.29043 0.0513544 1.12732 0.00387115 0.960236 0.000226905C0.793146 -0.00341734 0.628051 0.0368919 0.482083 0.117065C0.336058 0.197183 0.214454 0.314246 0.129685 0.456092C0.0449737 0.597993 0.00017079 0.759573 0 0.924181V21.2784C0.00017079 21.4433 0.0449737 21.6047 0.129685 21.7466C0.214454 21.8884 0.336058 22.0056 0.482083 22.0858C0.628051 22.1659 0.793146 22.2063 0.960236 22.2024C1.12732 22.199 1.29043 22.1514 1.4327 22.065L18.3314 11.8878C18.4703 11.807 18.5853 11.692 18.665 11.5541C18.7447 11.4161 18.7869 11.2601 18.7869 11.1014C18.7869 10.9426 18.7447 10.7866 18.665 10.6487C18.5853 10.5108 18.4703 10.3958 18.3314 10.315Z" fill="#5E6D55"/>
</svg>
