<svg width="52" height="52" viewBox="0 0 52 52" fill="none" xmlns="http://www.w3.org/2000/svg">
<rect width="52" height="52" rx="26" transform="matrix(-1 0 0 1 52 0)" fill="#5E6D55"/>
<path d="M35.3467 25C35.899 25 36.3467 25.4477 36.3467 26C36.3467 26.5523 35.899 27 35.3467 27V26V25ZM15.9456 26.7071C15.5551 26.3166 15.5551 25.6834 15.9456 25.2929L22.3095 18.9289C22.7001 18.5384 23.3332 18.5384 23.7238 18.9289C24.1143 19.3195 24.1143 19.9526 23.7238 20.3431L18.0669 26L23.7238 31.6569C24.1143 32.0474 24.1143 32.6805 23.7238 33.0711C23.3332 33.4616 22.7001 33.4616 22.3095 33.0711L15.9456 26.7071ZM35.3467 26V27H16.6527V26V25H35.3467V26Z" fill="#FBFBFB"/>
</svg>
