<svg width="32" height="32" viewBox="0 0 32 32" fill="none" xmlns="http://www.w3.org/2000/svg">
<path d="M16.5273 5.86664C19.0724 5.86774 21.4616 6.85836 23.2578 8.65668C25.0541 10.4549 26.043 12.846 26.042 15.3881C26.0396 20.6324 21.7728 24.8997 16.5273 24.9018H16.5234C14.9313 24.9012 13.367 24.5014 11.9775 23.7436L6.93359 25.0668L8.2832 20.1362C7.45077 18.6934 7.01299 17.0569 7.01367 15.3803C7.01576 10.1347 11.2834 5.86675 16.5273 5.86664ZM16.5303 7.47406C12.1687 7.47432 8.62205 11.0207 8.62012 15.3803C8.6195 16.8745 9.03752 18.3303 9.8291 19.5893L10.0166 19.8881L9.21777 22.8061L12.2109 22.0209L12.5 22.1928C13.714 22.9131 15.1056 23.2948 16.5244 23.2953H16.5273C20.8858 23.2953 24.4338 19.7474 24.4355 15.3871C24.4364 13.2742 23.6141 11.2872 22.1211 9.79242C20.6281 8.29784 18.6423 7.47479 16.5303 7.47406ZM13.6152 10.9946C13.7611 11.0018 13.9566 10.9399 14.1494 11.4028C14.3475 11.8788 14.8234 13.0494 14.8828 13.1684C14.9422 13.2873 14.9814 13.4259 14.9023 13.5844C14.8232 13.7428 14.7837 13.8423 14.665 13.9809C14.5462 14.1196 14.4155 14.2913 14.3086 14.3979C14.1896 14.5164 14.0654 14.6452 14.2041 14.8832C14.3431 15.1217 14.82 15.8997 15.5264 16.5297C16.4344 17.3396 17.2008 17.5904 17.4385 17.7094C17.676 17.8283 17.8145 17.8084 17.9531 17.6498C18.0919 17.4911 18.5476 16.9562 18.7061 16.7182C18.8645 16.4803 19.0233 16.5198 19.2412 16.5991C19.4603 16.6791 20.6277 17.2536 20.8652 17.3725C21.1026 17.4914 21.2607 17.5509 21.3203 17.6498C21.3797 17.749 21.3806 18.2253 21.1826 18.7807C20.9844 19.336 20.0339 19.8424 19.5771 19.9106C19.1677 19.9718 18.6494 19.9978 18.0801 19.8168C17.7348 19.7073 17.2917 19.5608 16.7246 19.3159C14.3401 18.286 12.7829 15.8847 12.6641 15.726C12.5447 15.5668 11.6934 14.4368 11.6934 13.267C11.6934 12.0971 12.3075 11.5216 12.5254 11.2836C12.7432 11.0458 13.0008 10.9868 13.1592 10.9868C13.3176 10.9868 13.4767 10.9876 13.6152 10.9946Z" fill="#5E6D55"/>
</svg>
