<svg width="46" height="47" viewBox="0 0 46 47" fill="none" xmlns="http://www.w3.org/2000/svg">
<path d="M34.754 17.6967C34.4719 16.5892 33.6406 15.7172 32.5849 15.4212C30.6719 14.8833 23.0001 14.8833 23.0001 14.8833C23.0001 14.8833 15.3282 14.8833 13.4151 15.4212C12.3594 15.7172 11.5281 16.5892 11.246 17.6967C10.7334 19.7038 10.7334 23.8916 10.7334 23.8916C10.7334 23.8916 10.7334 28.0793 11.246 30.0866C11.5281 31.1941 12.3594 32.0661 13.4151 32.3622C15.3282 32.9 23.0001 32.9 23.0001 32.9C23.0001 32.9 30.6719 32.9 32.5849 32.3622C33.6406 32.0661 34.4719 31.1941 34.754 30.0866C35.2667 28.0793 35.2667 23.8916 35.2667 23.8916C35.2667 23.8916 35.2667 19.7038 34.754 17.6967" fill="#131313"/>
<path d="M20.7002 28.2V20.3667L26.8335 24.2835L20.7002 28.2Z" fill="#FBFBFB"/>
</svg>
