<svg width="94" height="94" viewBox="0 0 94 94" fill="none" xmlns="http://www.w3.org/2000/svg">
<path d="M0.754152 46.107C1.17076 20.6427 22.1513 0.337655 47.6155 0.754265C73.0797 1.17087 93.3848 22.1514 92.9682 47.6156C92.5516 73.0798 71.571 93.3849 46.1068 92.9683C20.6426 92.5517 0.337542 71.5712 0.754152 46.107Z" fill="#FBFBFB"/>
<path d="M59.1293 45.9217L42.2305 35.7444C42.0883 35.658 41.9252 35.6106 41.7581 35.6069C41.591 35.6033 41.4259 35.6436 41.2799 35.7238C41.1339 35.8039 41.0123 35.9209 40.9275 36.0628C40.8428 36.2047 40.798 36.3663 40.7979 36.5309V56.8851C40.798 57.05 40.8428 57.2114 40.9275 57.3533C41.0123 57.4951 41.1339 57.6123 41.2799 57.6925C41.4259 57.7726 41.591 57.813 41.7581 57.8091C41.9252 57.8057 42.0883 57.7581 42.2305 57.6717L59.1293 47.4945C59.2682 47.4137 59.3832 47.2987 59.4629 47.1608C59.5426 47.0228 59.5847 46.8668 59.5847 46.7081C59.5847 46.5493 59.5426 46.3933 59.4629 46.2554C59.3832 46.1175 59.2682 46.0024 59.1293 45.9217Z" fill="#5E6D55"/>
</svg>
